<?xml version="1.0" standalone="no"?>
<!DOCTYPE svg PUBLIC "-//W3C//DTD SVG 20010904//EN"
 "http://www.w3.org/TR/2001/REC-SVG-20010904/DTD/svg10.dtd">
<svg version="1.0" xmlns="http://www.w3.org/2000/svg"
 width="2000.000000pt" height="2000.000000pt" viewBox="0 0 2000.000000 2000.000000"
 preserveAspectRatio="xMidYMid meet">

<g transform="translate(0.000000,2000.000000) scale(0.100000,-0.100000)"
fill="#000000" stroke="none">
<path d="M12035 16713 c-143 -17 -204 -29 -295 -60 -211 -71 -395 -171 -562
-305 -156 -126 -407 -403 -563 -622 l-85 -119 -393 2 c-215 1 -428 4 -472 7
-44 3 -240 -1 -435 -10 -195 -8 -431 -18 -525 -21 -397 -14 -918 -77 -1340
-161 -150 -30 -192 -35 -250 -29 -117 11 -153 23 -355 117 -650 303 -1203 509
-1700 632 -435 108 -548 128 -761 133 -279 8 -477 -29 -677 -128 -125 -61
-174 -108 -292 -277 -262 -377 -430 -732 -525 -1112 -91 -360 -143 -775 -131
-1040 17 -373 71 -667 226 -1244 27 -103 50 -208 50 -234 0 -36 -11 -66 -46
-132 -365 -686 -639 -1457 -748 -2101 -38 -219 -56 -415 -65 -671 -6 -195 -10
-239 -25 -268 -30 -58 -56 -80 -94 -80 -88 0 -890 -89 -1044 -115 -243 -42
-407 -106 -459 -178 -59 -80 -77 -161 -49 -224 29 -66 52 -76 198 -81 94 -3
188 3 362 22 364 41 791 76 914 76 86 0 120 -5 151 -19 76 -35 70 -16 184
-531 39 -173 87 -373 107 -445 72 -259 63 -272 -296 -374 -118 -34 -264 -80
-325 -102 -120 -44 -326 -147 -364 -182 -33 -31 -61 -95 -61 -144 0 -71 72
-125 196 -146 55 -10 78 -8 196 17 73 15 162 36 198 46 36 11 153 38 260 60
167 36 207 41 280 37 96 -5 179 -32 227 -74 18 -16 75 -102 127 -193 118 -208
285 -477 341 -552 70 -93 69 -165 -4 -231 -40 -36 -219 -145 -574 -351 -120
-69 -244 -144 -277 -166 -129 -88 -279 -226 -339 -313 -28 -41 -31 -53 -31
-119 0 -82 24 -149 60 -168 11 -6 45 -15 75 -20 100 -16 136 0 515 234 425
263 587 356 800 460 159 78 168 81 236 81 84 0 36 30 461 -291 641 -485 1199
-812 1718 -1009 973 -370 1424 -465 2863 -605 704 -68 962 -85 1532 -101 792
-22 1681 24 2310 120 36 6 155 24 265 40 679 103 1156 220 1750 429 415 146
792 332 1095 540 443 303 772 579 1084 907 76 80 156 155 177 165 48 25 148
27 216 4 51 -17 159 -63 638 -274 297 -131 502 -207 622 -231 57 -12 67 -11
110 7 66 27 97 83 97 174 0 74 -23 129 -77 182 -61 61 -360 228 -772 432 -438
217 -475 241 -475 306 0 16 37 112 81 212 161 362 222 505 261 608 49 130 75
172 131 205 l44 25 234 -15 c129 -8 333 -28 454 -46 195 -27 240 -30 395 -27
195 5 255 19 293 70 26 35 28 115 4 152 -31 47 -307 167 -510 221 -94 26 -404
82 -605 109 -133 19 -168 32 -206 77 -33 39 -34 32 20 459 20 151 39 358 43
460 8 189 15 222 47 252 58 51 429 68 979 45 489 -21 624 -7 699 72 56 59 48
127 -25 199 -37 38 -69 55 -184 100 -69 27 -113 35 -314 57 -263 30 -667 46
-935 38 -194 -5 -217 1 -249 70 -10 20 -47 226 -87 481 -38 245 -79 482 -90
527 -51 197 -142 465 -209 613 l-29 65 47 68 c67 98 221 346 269 433 119 219
259 654 318 995 32 187 43 484 24 657 -30 271 -141 496 -316 640 -134 110
-233 163 -379 201 l-90 24 -12 124 c-60 606 -174 1160 -314 1511 -60 152 -195
380 -315 529 -102 128 -292 257 -435 296 -53 15 -104 18 -304 17 l-240 0 -275
-56 c-213 -43 -322 -71 -480 -123 -383 -126 -737 -287 -1049 -477 -119 -72
-231 -140 -250 -152 l-34 -20 -26 34 c-158 209 -361 426 -511 546 -204 164
-401 270 -577 309 -155 35 -343 51 -448 38z m4080 -727 c28 -13 64 -39 82 -57
83 -89 264 -430 323 -609 71 -214 141 -582 180 -935 5 -55 13 -114 15 -131 l5
-31 -217 -6 c-242 -6 -375 -21 -631 -73 -297 -60 -437 -106 -541 -177 l-45
-30 -35 44 c-19 24 -80 89 -135 144 -167 167 -403 309 -611 370 -108 31 -298
65 -366 65 -27 0 -49 4 -49 9 0 28 -34 197 -51 255 -12 39 -52 148 -90 245
-37 96 -66 178 -64 182 11 16 424 232 590 307 393 179 1130 420 1350 441 161
16 236 13 290 -13z m-11640 -351 c301 -45 520 -99 825 -203 404 -139 918 -369
1331 -596 153 -84 207 -103 330 -116 123 -12 254 2 479 53 107 25 231 50 275
56 145 20 1064 80 1375 90 572 19 1080 25 1080 13 0 -6 -11 -36 -24 -65 -61
-139 -192 -613 -245 -887 -81 -420 -81 -696 -2 -1002 97 -371 314 -720 545
-872 195 -129 454 -225 721 -267 244 -39 652 5 1081 116 252 65 325 91 394
136 33 23 62 40 64 38 154 -207 266 -315 467 -452 207 -140 442 -219 733 -246
123 -12 299 -1 441 28 59 12 88 14 90 7 45 -177 172 -409 337 -616 201 -250
421 -420 692 -530 171 -70 263 -91 427 -97 174 -7 295 10 464 64 185 59 447
197 597 315 20 15 39 25 41 21 8 -14 85 -276 111 -378 79 -315 157 -796 142
-877 -4 -20 -19 -50 -34 -66 -32 -35 -96 -51 -314 -83 -191 -27 -445 -84 -540
-120 -94 -37 -141 -83 -157 -157 -23 -108 45 -197 176 -231 43 -12 181 3 571
60 207 30 263 26 287 -22 23 -43 20 -307 -5 -499 -39 -310 -72 -505 -89 -524
-29 -33 -63 -38 -287 -40 -213 -3 -223 -4 -265 -27 -52 -29 -109 -108 -109
-151 0 -38 20 -76 62 -114 51 -47 75 -59 178 -88 229 -65 260 -83 260 -151 0
-99 -208 -574 -368 -838 -70 -116 -130 -128 -360 -76 -182 42 -260 43 -338 3
-70 -35 -94 -66 -101 -128 -13 -109 55 -192 232 -286 137 -73 149 -97 94 -186
-42 -65 -288 -308 -418 -412 -105 -85 -364 -259 -546 -369 -484 -292 -1261
-577 -1955 -717 -69 -14 -189 -39 -267 -56 -411 -86 -1044 -160 -1743 -202
-284 -17 -1382 -17 -1705 0 -980 52 -1599 122 -2190 248 -253 54 -1032 275
-1235 351 -260 97 -630 269 -855 398 -228 131 -575 361 -882 585 -152 111
-148 123 103 260 170 93 264 175 264 230 0 85 -50 168 -117 196 -83 35 -255 3
-477 -90 -139 -58 -166 -66 -222 -66 -72 0 -143 21 -194 58 -40 28 -263 327
-345 460 -29 48 -74 129 -100 180 -39 78 -46 100 -42 130 11 64 41 81 299 166
206 68 240 82 270 113 30 31 33 40 32 91 0 69 -21 113 -67 141 -51 31 -295 39
-472 15 -153 -21 -231 -22 -264 -5 -28 16 -66 96 -126 273 -116 337 -176 709
-130 798 30 58 58 64 270 55 104 -4 273 -7 375 -8 198 -1 220 4 278 57 28 25
62 88 62 113 -1 35 -38 101 -73 127 -20 15 -94 47 -164 71 -135 45 -262 68
-575 104 -181 21 -204 29 -249 93 -21 29 -22 37 -16 192 25 642 197 1406 472
2091 149 372 252 558 566 1021 208 306 229 347 229 451 0 30 -6 68 -14 86 -18
44 -77 94 -128 108 -75 20 -121 7 -263 -72 -65 -36 -90 -23 -130 64 -69 150
-112 314 -146 552 -17 124 -18 157 -9 300 40 617 150 1024 380 1405 107 178
174 264 239 308 60 40 187 87 276 101 82 14 233 12 340 -4z"/>
<path d="M5890 8708 c-285 -100 -435 -396 -418 -826 5 -107 10 -142 37 -222
79 -240 186 -346 399 -396 114 -27 295 -3 388 51 123 71 215 204 266 380 21
73 23 100 23 305 0 188 -3 236 -18 289 -45 159 -129 293 -216 345 -116 70
-176 89 -291 93 -89 3 -115 0 -170 -19z"/>
<path d="M13720 8700 c-91 -16 -131 -32 -192 -78 -161 -121 -252 -306 -271
-547 -31 -401 80 -658 339 -786 l87 -44 126 0 c119 0 129 2 186 29 117 57 229
197 296 371 54 139 69 216 69 351 0 231 -60 407 -196 576 -45 55 -63 70 -111
88 -110 42 -235 57 -333 40z"/>
<path d="M9865 7380 c-107 -17 -238 -59 -345 -112 -219 -107 -336 -277 -357
-518 -7 -88 18 -224 56 -307 38 -80 130 -174 216 -220 134 -71 356 -132 556
-153 285 -31 610 68 764 231 111 118 160 229 172 388 7 112 -8 183 -62 297
-35 72 -57 103 -107 150 -154 143 -434 241 -713 249 -66 2 -147 0 -180 -5z
m375 -380 c84 -28 106 -40 168 -89 61 -49 96 -106 112 -183 21 -106 -28 -191
-143 -248 -206 -100 -479 -98 -677 6 -135 71 -183 201 -119 325 31 62 114 146
163 164 150 57 367 68 496 25z"/>
</g>
</svg>
